<?xml version="1.0" encoding="iso-8859-1"?>
<!-- Uploaded to: SVG Repo, www.svgrepo.com, Generator: SVG Repo Mixer Tools -->
<svg version="1.1" id="Layer_1" xmlns="http://www.w3.org/2000/svg" xmlns:xlink="http://www.w3.org/1999/xlink" 
	 viewBox="0 0 512 512" xml:space="preserve">
<g transform="translate(1 1)">
	<path style="fill:#FCC309;" d="M135.533,340.333H109.08c-4.267,0-7.68-3.413-7.68-7.68V288.28c0-4.267,3.413-7.68,7.68-7.68h26.453
		V340.333z"/>
	<g>
		<path style="fill:#FFDD09;" d="M331.8,67.267h-34.133V24.6c0-9.387,7.68-17.067,17.067-17.067c9.387,0,17.067,7.68,17.067,17.067
			V67.267z"/>
		<path style="fill:#FFDD09;" d="M345.453,502.467H164.547c-16.213,0-29.013-12.8-29.013-29.013V147.48
			c0-16.213,12.8-29.013,29.013-29.013h180.907c16.213,0,29.013,12.8,29.013,29.013v325.973
			C374.467,489.667,361.667,502.467,345.453,502.467"/>
	</g>
	<path style="fill:#FD9808;" d="M345.453,118.467h-25.6c16.213,0,29.013,12.8,29.013,29.013v325.973
		c0,16.213-12.8,29.013-29.013,29.013h25.6c16.213,0,29.013-12.8,29.013-29.013V147.48
		C374.467,131.267,361.667,118.467,345.453,118.467"/>
	<path style="fill:#FCC309;" d="M135.533,237.933H109.08c-4.267,0-7.68-3.413-7.68-7.68V185.88c0-4.267,3.413-7.68,7.68-7.68h26.453
		V237.933z"/>
	<g>
		<path style="fill:#FFFFFF;" d="M118.467,230.253V185.88c0-4.267,3.413-7.68,7.68-7.68H109.08c-4.267,0-7.68,3.413-7.68,7.68
			v44.373c0,4.267,3.413,7.68,7.68,7.68h17.067C121.88,237.933,118.467,234.52,118.467,230.253"/>
		<path style="fill:#FFFFFF;" d="M118.467,332.653V288.28c0-4.267,3.413-7.68,7.68-7.68H109.08c-4.267,0-7.68,3.413-7.68,7.68
			v44.373c0,4.267,3.413,7.68,7.68,7.68h17.067C121.88,340.333,118.467,336.92,118.467,332.653"/>
	</g>
	<path style="fill:#FCC309;" d="M374.467,289.133h26.453c4.267,0,7.68-3.413,7.68-7.68V237.08c0-4.267-3.413-7.68-7.68-7.68h-26.453
		V289.133z"/>
	<path style="fill:#FD9808;" d="M391.533,281.453v-45.227c0-4.267-3.413-7.68-7.68-7.68h17.067c4.267,0,7.68,3.413,7.68,7.68v45.227
		c0,4.267-3.413,7.68-7.68,7.68h-17.067C388.12,289.133,391.533,285.72,391.533,281.453"/>
	<g>
		<path style="fill:#1CD759;" d="M331.8,331.8c0,18.773-15.36,34.133-34.133,34.133s-34.133-15.36-34.133-34.133
			s15.36-34.133,34.133-34.133S331.8,313.027,331.8,331.8"/>
		<path style="fill:#1CD759;" d="M201.24,365.933h-11.093c-6.827,0-11.947-5.12-11.947-11.093v-45.227
			c0-5.973,5.12-11.093,11.093-11.093h11.093c5.973,0,11.093,5.12,11.093,11.093v45.227
			C212.333,360.813,207.213,365.933,201.24,365.933"/>
		<polygon style="fill:#1CD759;" points="178.2,263.533 331.8,263.533 331.8,161.133 178.2,161.133 		"/>
	</g>
	<polygon style="fill:#15A143;" points="306.2,263.533 331.8,263.533 331.8,161.133 306.2,161.133 	"/>
	<path style="fill:#1CD759;" d="M324.973,459.8H185.027c-3.413,0-6.827-3.413-6.827-6.827v-37.547c0-3.413,3.413-6.827,6.827-6.827
		h139.947c3.413,0,6.827,3.413,6.827,6.827v37.547C331.8,456.387,328.387,459.8,324.973,459.8"/>
	<path style="fill:#15A143;" d="M324.973,408.6h-25.6c3.413,0,6.827,3.413,6.827,6.827v37.547c0,3.413-3.413,6.827-6.827,6.827h25.6
		c3.413,0,6.827-3.413,6.827-6.827v-37.547C331.8,412.013,328.387,408.6,324.973,408.6"/>
	<path d="M345.453,511H164.547C144.067,511,127,493.933,127,473.453V147.48c0-20.48,17.067-37.547,37.547-37.547h180.907
		C365.933,109.933,383,127,383,147.48v325.973C383,493.933,365.933,511,345.453,511z M164.547,127
		c-11.093,0-20.48,9.387-20.48,20.48v325.973c0,11.093,9.387,20.48,20.48,20.48h180.907c11.093,0,20.48-9.387,20.48-20.48V147.48
		c0-11.093-9.387-20.48-20.48-20.48H164.547z"/>
	<path d="M297.667,374.467c-23.893,0-42.667-18.773-42.667-42.667s18.773-42.667,42.667-42.667
		c23.893,0,42.667,18.773,42.667,42.667S321.56,374.467,297.667,374.467z M297.667,306.2c-14.507,0-25.6,11.093-25.6,25.6
		s11.093,25.6,25.6,25.6s25.6-11.093,25.6-25.6S312.173,306.2,297.667,306.2z"/>
	<path d="M297.667,340.333c-2.56,0-4.267-0.853-5.973-2.56c-3.413-3.413-3.413-8.533,0-11.947l23.893-23.893
		c3.413-3.413,8.533-3.413,11.947,0s3.413,8.533,0,11.947l-23.893,23.893C301.933,339.48,300.227,340.333,297.667,340.333z"/>
	<path d="M201.24,374.467h-11.093c-11.093,0-20.48-9.387-20.48-19.627v-45.227c0-11.093,9.387-19.627,19.627-19.627h11.093
		c11.093,0,19.627,9.387,19.627,19.627v45.227C220.867,365.08,211.48,374.467,201.24,374.467z M189.293,306.2
		c-1.707,0-2.56,1.707-2.56,2.56v45.227c0,1.707,1.707,2.56,2.56,2.56h11.093c1.707,0,2.56-1.707,2.56-2.56V308.76
		c0-1.707-1.707-2.56-2.56-2.56H189.293z"/>
	<path d="M144.067,246.467H109.08c-8.533,0-16.213-6.827-16.213-16.213V185.88c0-8.533,6.827-16.213,16.213-16.213h34.987V246.467z
		 M109.933,229.4H127v-42.667h-17.067V229.4z"/>
	<path d="M400.92,297.667h-34.987v-76.8h34.987c8.533,0,16.213,6.827,16.213,16.213v44.373
		C417.133,290.84,410.307,297.667,400.92,297.667z M383,280.6h17.067v-42.667H383V280.6z"/>
	<path d="M144.067,348.867H109.08c-8.533,0-16.213-6.827-16.213-16.213V288.28c0-8.533,6.827-16.213,16.213-16.213h34.987V348.867z
		 M109.933,331.8H127v-42.667h-17.067V331.8z"/>
	<path d="M340.333,272.067H169.667V152.6h170.667V272.067z M186.733,255h136.533v-85.333H186.733V255z"/>
	<rect x="306.2" y="67.267" width="17.067" height="51.2"/>
	<path d="M340.333,75.8h-51.2V24.6c0-14.507,11.093-25.6,25.6-25.6c14.507,0,25.6,11.093,25.6,25.6V75.8z M306.2,58.733h17.067V24.6
		c0-5.12-3.413-8.533-8.533-8.533c-5.12,0-8.533,3.413-8.533,8.533V58.733z"/>
	<path d="M324.973,468.333H185.027c-8.533,0-15.36-6.827-15.36-15.36v-37.547c0-8.533,6.827-15.36,15.36-15.36h139.947
		c8.533,0,15.36,6.827,15.36,15.36v37.547C340.333,461.507,333.507,468.333,324.973,468.333z M186.733,451.267h136.533v-34.133
		H186.733V451.267z"/>
	<path d="M289.133,442.733h-68.267c-5.12,0-8.533-3.413-8.533-8.533c0-5.12,3.413-8.533,8.533-8.533h68.267
		c5.12,0,8.533,3.413,8.533,8.533C297.667,439.32,294.253,442.733,289.133,442.733z"/>
	<path d="M212.333,237.933c-2.56,0-4.267-0.853-5.973-2.56c-3.413-3.413-3.413-8.533,0-11.947l34.133-34.133
		c3.413-3.413,8.533-3.413,11.947,0s3.413,8.533,0,11.947l-34.133,34.133C216.6,237.08,214.893,237.933,212.333,237.933z"/>
	<path d="M263.533,237.933c-2.56,0-4.267-0.853-5.973-2.56c-3.413-3.413-3.413-8.533,0-11.947l34.133-34.133
		c3.413-3.413,8.533-3.413,11.947,0s3.413,8.533,0,11.947l-34.133,34.133C267.8,237.08,266.093,237.933,263.533,237.933z"/>
</g>
</svg>